{"title":"Restitution 2011 DVDRiP AC3 XViD-SIC","uid":6815912,"size":1468344606,"categoryP":"video","categoryS":"movies","magnet":"?xt=urn:btih:fb06f6ae0a6c92c5d5f28a590624360e2ba96505&amp;dn=Restitution+2011+DVDRiP+AC3+XViD-SIC&amp;tr=udp%3A%2F%2Ftracker.openbittorrent.com%3A80&amp;tr=udp%3A%2F%2Fopen.demonii.com%3A1337&amp;tr=udp%3A%2F%2Ftracker.coppersurfer.tk%3A6969&amp;tr=udp%3A%2F%2Fexodus.desync.com%3A6969","seeders":0,"leechers":0,"uploader":".BONE.","files":1,"time":1321204694,"description":"Genre : Crime / Thriller\n\nPlot : A true crime writer investigating a small town murder spree uncovers the devastating truth that changes the town forever.\n\n\n\nRestitution.2011.DVDRip.XviD.AC3-SiC\nGeneral\nComplete name : Restitution.2011.DVDRip.XviD.AC3-SiC.avi\nFormat : AVI\nFormat/Info : Audio Video Interleave\nFile size : 1.37 GiB\nDuration : 1h 40mn\nOverall bit rate : 1 944 Kbps\nVideoID : 0\nFormat : MPEG-4 Visual\nFormat profile : Advanced Simple@L5\nFormat settings, BVOP : Yes\nFormat settings, QPel : No\nFormat settings, GMC : No warppoints\nFormat settings, Matrix : Default (MPEG)\nMuxing mode : Packed bitstream\nCodec ID : XVID\nCodec ID/Hint : XviD\nDuration : 1h 40mn\nBit rate : 1 552 Kbps\nWidth : 720 pixels\nHeight : 384 pixels\nDisplay aspect ratio : 1.875\nFrame rate : 23.976 fps\nColor space : YUV\nChroma subsampling : 4:2:0\nBit depth : 8 bits\nScan type : Progressive\nBits/(Pixel*Frame) : 0.234\nStream size : 1.09 GiB (80%)\nWriting library : XviD 64\nAudio\nID : 1\nFormat : AC-3\nFormat/Info : Audio Coding 3\nMode extension : CM (complete main)\nCodec ID : 2000\nDuration : 1h 40mn\nBit rate mode : Constant\nBit rate : 384 Kbps\nChannel(s) : 6 channels\nChannel positions : Front: L C R, Side: L R, LFE\nSampling rate : 48.0 KHz\nBit depth : 16 bits\nStream size : 277 MiB (20%)\nAlignment : Aligned on interleaves\ninterleave, duration : 64 ms (1.53 video frames)\nInterleave, preload duration : 192\nTitle : Restitution T80 3_2ch 384Kbps DELAY 0ms\n &lt;a href=&quot;\nhttp://www.imdb.com/title/tt1452599/&quot; rel=&quot;nofollow&quot; target=&quot;_NEW&quot;&gt;\nhttp://www.imdb.com/title/tt1452599/&lt;/a&gt;\n","torrent":{"xt":"urn:btih:fb06f6ae0a6c92c5d5f28a590624360e2ba96505","amp;dn":"Restitution+2011+DVDRiP+AC3+XViD-SIC","amp;tr":["udp%3A%2F%2Ftracker.openbittorrent.com%3A80","udp%3A%2F%2Fopen.demonii.com%3A1337","udp%3A%2F%2Ftracker.coppersurfer.tk%3A6969","udp%3A%2F%2Fexodus.desync.com%3A6969"],"infoHash":"fb06f6ae0a6c92c5d5f28a590624360e2ba96505","infoHashBuffer":{"type":"Buffer","data":[251,6,246,174,10,108,146,197,213,242,138,89,6,36,54,14,43,169,101,5]},"announce":[],"urlList":[]}}